<?xml version="1.0" encoding="UTF-8"?>
<svg id="Camada_1" xmlns="http://www.w3.org/2000/svg" xmlns:xlink="http://www.w3.org/1999/xlink" version="1.1" viewBox="0 0 16 16">
  <!-- Generator: Adobe Illustrator 30.0.0, SVG Export Plug-In . SVG Version: 2.1.1 Build 123)  -->
  <defs>
    <style>
      .st0 {
        fill: url(#Gradiente_sem_nome_7);
      }
    </style>
    <linearGradient id="Gradiente_sem_nome_7" data-name="Gradiente sem nome 7" x1="4145.16" y1="-3910.07" x2="4160.67" y2="-3910.07" gradientTransform="translate(-4144.92 3918.07)" gradientUnits="userSpaceOnUse">
      <stop offset=".32" stop-color="#212b55"/>
      <stop offset="1" stop-color="#008848"/>
    </linearGradient>
  </defs>
  <path class="st0" d="M15.65,6.64c-.03-.17-.19-.29-.37-.26,0,0,0,0,0,0-.05-.21-.1-.42-.17-.62,0,0,0,0,0,0,.16-.06.25-.24.19-.4-.1-.28-.22-.55-.35-.82-.08-.16-.27-.22-.42-.14,0,0,0,0,0,0-.1-.19-.22-.37-.34-.55,0,0,0,0,0,0,.14-.1.17-.3.07-.44-.17-.24-.36-.47-.57-.68-.12-.13-.32-.14-.45-.02,0,0,0,0,0,0-.15-.15-.31-.3-.48-.43,0,0,0,0,0,0,.11-.14.08-.34-.06-.44-.23-.18-.48-.35-.73-.5-.15-.09-.34-.04-.43.11,0,0,0,0,0,0-.19-.1-.38-.2-.58-.28,0,0,0,0,0,0,.06-.16-.02-.35-.18-.41-.28-.11-.56-.2-.85-.27-.17-.04-.34.06-.38.23,0,0,0,0,0,0-.21-.04-.42-.08-.64-.11,0,0,0,0,0,0,.01-.17-.12-.33-.29-.34-.29-.02-.59-.03-.89-.02-.17,0-.31.15-.31.33,0,0,0,0,0,0-.22.02-.43.04-.64.07,0,0,0,0,0,0-.04-.17-.2-.28-.37-.25-.29.06-.58.14-.86.23-.17.05-.26.23-.2.4,0,0,0,0,0,0-.2.08-.4.16-.59.26,0,0,0,0,0,0-.08-.15-.27-.21-.43-.13-.26.14-.52.29-.76.46-.14.1-.18.3-.08.44,0,0,0,0,0,0-.17.13-.34.27-.5.41,0,0,0,0,0,0-.12-.12-.32-.13-.45,0-.21.21-.41.43-.6.66-.11.14-.09.33.05.44,0,0,0,0,0,0-.13.17-.25.35-.36.53,0,0,0,0,0,0-.15-.09-.34-.03-.43.12-.14.26-.28.53-.39.8-.07.16,0,.35.17.41,0,0,0,0,0,0-.07.2-.14.41-.2.62,0,0,0,0,0,0-.17-.04-.34.07-.38.24-.07.29-.12.58-.15.88-.02.17.11.33.28.35,0,0,0,0,0,0-.01.21-.02.43-.02.65,0,0,0,0,0,0-.17.01-.31.16-.3.34v.02c.02.29.06.59.11.88.03.16.17.27.33.26.01,0,.02,0,.04,0,0,0,0,0,0,0,.05.21.1.42.17.62,0,0,0,0,0,0-.16.06-.25.24-.19.4.1.28.22.55.35.82.06.12.18.18.3.17.04,0,.08-.01.12-.03,0,0,0,0,0,0,.1.19.22.37.34.55,0,0,0,0,0,0-.14.1-.17.3-.07.44.17.24.37.47.57.68.07.07.16.11.25.1.07,0,.14-.03.19-.08,0,0,0,0,0,0,.15.15.31.3.48.43,0,0,0,0,0,0-.11.14-.08.34.06.44.23.18.48.35.73.5.06.03.12.05.18.04.1,0,.2-.06.25-.15,0,0,0,0,0,0,.19.1.38.2.58.28,0,0,0,0,0,0-.06.16.02.35.18.41.28.11.56.2.85.27.03,0,.07.01.1,0,.13,0,.25-.1.29-.24,0,0,0,0,0,0,.21.04.42.08.64.11,0,0,0,0,0,0-.01.17.12.33.29.34.29.02.59.03.89.02,0,0,0,0,0,0,.17-.01.3-.15.3-.33,0,0,0,0,0,0,.22-.02.43-.04.64-.07,0,0,0,0,0,0,.03.16.17.26.33.25.01,0,.03,0,.04,0,.29-.06.58-.14.86-.23.17-.05.26-.23.2-.4,0,0,0,0,0,0,.2-.08.4-.16.59-.26,0,0,0,0,0,0,.06.11.18.17.3.17.04,0,.09-.01.13-.04.26-.14.51-.29.76-.46.14-.1.18-.3.08-.44,0,0,0,0,0,0,.17-.13.34-.27.5-.41,0,0,0,0,0,0,.07.07.16.1.25.09.07,0,.14-.03.2-.09.21-.21.41-.43.6-.66.11-.14.09-.33-.05-.44,0,0,0,0,0,0,.13-.17.25-.35.36-.54,0,0,0,0,0,0,.06.03.12.04.17.04.1,0,.2-.06.26-.16.14-.26.27-.53.39-.8.07-.16,0-.35-.17-.41,0,0,0,0,0,0,.07-.2.14-.41.2-.62,0,0,0,0,0,0,.03,0,.06,0,.09,0,.14,0,.26-.11.29-.25.07-.29.11-.58.15-.88.02-.17-.11-.33-.28-.35,0,0,0,0,0,0,.01-.21.02-.43.02-.65,0,0,0,0,0,0,.17-.01.31-.16.3-.33h0c-.02-.3-.05-.59-.1-.88ZM12.74,6.18c.18.47.29.97.33,1.5.18,2.79-1.96,5.21-4.75,5.38-2.79.18-5.21-1.96-5.38-4.75s1.96-5.21,4.75-5.38c1.9-.12,3.63.83,4.6,2.33.42.11,1.11.29,1.33.45,0,0-.52.2-.86.47ZM6.52,5.49c-2.09.96-2.04,3.1-1.73,3.84.02.04.04.09.06.13,1.57-2.21,4.46-3,4.61-3.05.08-.02.52-.16.54-.09.03.08-.29.21-.36.24-3.04,1.26-3.91,3.36-4.07,3.79.37.3.84.51,1.36.6,2.78.51,4-1.94,4.71-3.69.57-1.39,1.59-1.54,1.59-1.54,0,0-4.44-1.29-6.72-.24Z"/>
</svg>