<?xml version="1.0" encoding="UTF-8"?>
<svg id="Camada_1" xmlns="http://www.w3.org/2000/svg" version="1.1" viewBox="0 0 184 28">
  <!-- Generator: Adobe Illustrator 30.0.0, SVG Export Plug-In . SVG Version: 2.1.1 Build 123)  -->
  <defs>
    <style>
      .st0 {
        fill: #fff;
      }
    </style>
  </defs>
  <g>
    <g>
      <path class="st0" d="M93.31,2.2c1.15,0,2.03.24,2.63.72.6.48.9,1.11.9,1.91,0,.35-.05.69-.15,1.01-.1.32-.25.62-.46.89-.21.27-.48.52-.81.73-.33.21-.73.39-1.19.53.12.21.25.47.39.77.14.3.28.63.43.98.15.35.29.71.43,1.1.14.38.27.76.38,1.13h-1.85c-.11-.34-.23-.67-.35-1.02-.12-.34-.25-.68-.38-1-.13-.32-.26-.62-.4-.91-.14-.28-.27-.54-.4-.76-.08,0-.19.01-.31.01h-1.13l-.88,3.67h-1.76l2.28-9.53c.45-.09.9-.16,1.36-.19.46-.03.88-.05,1.26-.05ZM95.05,5.02c0-.51-.19-.86-.56-1.05-.37-.19-.87-.29-1.49-.29-.13,0-.27,0-.42.01-.15,0-.3.02-.45.04l-.75,3.15h.78c.42,0,.8-.03,1.16-.1.35-.07.66-.18.91-.33.26-.15.46-.34.6-.58.14-.24.22-.52.22-.86Z"/>
      <path class="st0" d="M103.27,9.14c-.03.1-.06.27-.08.5-.03.23-.04.45-.04.66,0,.27.02.53.07.79.05.26.12.51.22.77l-1.51.22c-.11-.22-.2-.46-.27-.71-.23.2-.52.39-.86.55-.34.16-.72.24-1.15.24s-.81-.07-1.12-.22c-.31-.14-.57-.34-.76-.6-.2-.26-.34-.56-.43-.9-.09-.34-.14-.72-.14-1.12,0-.68.12-1.31.36-1.9.24-.59.58-1.09,1.01-1.52.43-.43.95-.77,1.54-1.01.6-.25,1.25-.37,1.95-.37.36,0,.73.03,1.1.09.37.06.74.17,1.11.34l-1.01,4.17ZM102.36,5.98c-.18-.04-.38-.06-.6-.06-.42,0-.81.09-1.16.27-.35.18-.66.42-.92.73-.26.3-.45.65-.59,1.04-.14.39-.21.8-.21,1.23,0,.21.02.41.06.6.04.19.1.35.19.49.09.14.21.25.36.34.15.08.34.13.57.13.3,0,.56-.06.79-.19.23-.13.44-.3.64-.51,0-.24.03-.47.06-.68.03-.21.08-.43.13-.64l.69-2.74Z"/>
      <path class="st0" d="M107.48,12.11c-.44,0-.81-.07-1.11-.17-.3-.1-.54-.24-.73-.42-.18-.18-.31-.39-.39-.63-.08-.24-.12-.51-.12-.8s.03-.61.1-.94c.07-.33.15-.66.23-.98l1.62-6.76,1.76-.28c-.29,1.22-.58,2.43-.87,3.64-.29,1.21-.59,2.42-.89,3.64-.04.2-.09.39-.15.58-.05.19-.08.38-.08.57,0,.16,0,.3,0,.44,0,.14.04.25.11.35.07.1.17.18.31.24.14.07.32.11.54.13l-.36,1.4Z"/>
      <path class="st0" d="M111.64,12.11c-.44,0-.81-.07-1.11-.17-.3-.1-.54-.24-.73-.42-.18-.18-.31-.39-.39-.63-.08-.24-.12-.51-.12-.8s.03-.61.1-.94c.07-.33.15-.66.23-.98l1.62-6.76,1.76-.28c-.29,1.22-.58,2.43-.87,3.64-.29,1.21-.59,2.42-.89,3.64-.04.2-.09.39-.15.58-.05.19-.08.38-.08.57,0,.16,0,.3,0,.44,0,.14.04.25.11.35.07.1.17.18.31.24.14.07.32.11.54.13l-.36,1.4Z"/>
      <path class="st0" d="M120.07,4.67c-.19.53-.39,1.08-.62,1.65-.22.57-.47,1.15-.75,1.72-.28.58-.57,1.15-.89,1.72-.32.57-.66,1.13-1.02,1.67-.27.41-.55.8-.84,1.18-.29.38-.6.71-.94,1-.34.29-.71.52-1.12.7-.41.18-.88.27-1.4.27-.29,0-.55-.03-.78-.1-.23-.07-.42-.14-.58-.22l.54-1.35c.13.07.28.13.44.18.16.05.34.07.54.07.44,0,.82-.11,1.15-.34.33-.23.63-.54.9-.93-.3-1.03-.55-2.15-.75-3.36-.21-1.21-.34-2.49-.41-3.85h1.7c0,.39.03.82.06,1.3.03.47.08.96.13,1.46.05.5.12.99.19,1.47.08.48.16.93.25,1.34.28-.45.54-.92.78-1.41.24-.49.47-.98.67-1.47s.39-.96.54-1.42.29-.88.4-1.26h1.79Z"/>
    </g>
    <g>
      <path class="st0" d="M119.37,14.17c-.18,0-.33-.03-.45-.09-.13-.06-.23-.14-.31-.24-.08-.1-.14-.22-.18-.36-.04-.14-.06-.29-.06-.45,0-.25.04-.49.13-.72.09-.23.21-.44.38-.62.16-.18.36-.32.6-.43.24-.11.5-.16.8-.16.04,0,.08,0,.13,0,.05,0,.11.01.17.03l.31-1.29.7-.11-.77,3.17c-.02.09-.03.17-.04.26,0,.09-.01.17-.01.25,0,.1,0,.2.03.3.02.1.05.21.09.31l-.6.09c-.04-.08-.08-.17-.11-.29-.09.08-.21.16-.34.22s-.29.1-.47.1ZM120.45,11.7c-.07-.01-.16-.02-.26-.02-.17,0-.33.04-.47.11-.14.07-.26.17-.36.29-.1.12-.18.26-.23.42-.05.16-.08.32-.08.49,0,.09,0,.17.03.24.02.07.04.14.08.2.04.06.09.1.15.13s.14.05.23.05c.12,0,.22-.02.32-.07.09-.05.18-.12.26-.2,0-.08.01-.16.03-.25.01-.09.03-.17.05-.25l.27-1.13Z"/>
      <path class="st0" d="M124.01,12.96s-.02.11-.03.2c-.01.09-.02.18-.02.26,0,.11,0,.21.03.32.02.1.05.21.09.31l-.6.09c-.04-.09-.08-.18-.11-.29-.09.08-.21.16-.34.22-.14.07-.29.1-.46.1s-.33-.03-.45-.09c-.12-.06-.23-.14-.3-.24-.08-.1-.14-.22-.17-.36-.04-.14-.06-.29-.06-.45,0-.27.05-.53.15-.76.1-.23.23-.44.41-.61.17-.17.38-.31.62-.41.24-.1.5-.15.78-.15.15,0,.29.01.44.04.15.02.3.07.44.14l-.4,1.67ZM123.64,11.69c-.07-.01-.15-.02-.24-.02-.17,0-.32.04-.46.11-.14.07-.26.17-.37.29-.1.12-.18.26-.24.42-.06.16-.08.32-.08.49,0,.09,0,.17.02.24.01.07.04.14.08.2.04.06.08.1.14.13.06.03.14.05.23.05.12,0,.22-.03.32-.08.09-.05.18-.12.25-.2,0-.1.01-.19.03-.27.01-.09.03-.17.05-.26l.28-1.1Z"/>
    </g>
    <g>
      <path class="st0" d="M88.81,23.02c.28,0,.56-.02.84-.08.28-.05.53-.14.76-.27.23-.13.41-.3.55-.51.14-.21.21-.49.21-.81,0-.24-.05-.45-.16-.62-.1-.17-.25-.33-.42-.47-.18-.14-.38-.27-.61-.39-.23-.12-.46-.25-.72-.39-.27-.14-.53-.29-.78-.47-.25-.17-.46-.37-.65-.59-.19-.22-.34-.48-.45-.77-.11-.29-.16-.64-.16-1.04,0-.48.1-.93.28-1.33.19-.4.46-.75.82-1.05.36-.29.81-.52,1.34-.69.53-.17,1.15-.25,1.85-.25.33,0,.64.03.94.08.3.05.58.12.84.2.26.08.49.17.69.26.2.1.36.19.47.27l-.87,1.51c-.22-.18-.53-.33-.92-.46s-.83-.19-1.3-.19c-.28,0-.55.03-.81.08-.26.06-.48.15-.68.27-.2.12-.35.28-.46.47-.11.19-.17.42-.17.69,0,.24.04.44.12.6.08.16.19.3.33.42.14.12.31.23.5.33.19.1.39.21.61.34.33.18.63.36.92.54.29.18.54.39.76.62.22.23.39.5.53.8.13.3.19.66.19,1.08,0,.59-.11,1.1-.34,1.54s-.53.8-.93,1.09c-.4.29-.87.5-1.42.65-.55.15-1.15.22-1.8.21-.43,0-.83-.03-1.19-.1-.36-.06-.69-.14-.97-.24-.28-.1-.53-.2-.73-.3-.2-.11-.36-.2-.48-.29l.89-1.56c.1.07.24.16.42.25.17.1.37.18.59.26s.46.15.72.2c.26.05.54.08.84.08Z"/>
      <path class="st0" d="M101.46,21.31c-.03.12-.06.3-.1.57-.03.26-.05.51-.05.74,0,.3.02.6.08.89.05.29.13.58.25.88l-1.7.25c-.13-.25-.22-.52-.3-.81-.26.23-.59.44-.97.62-.38.18-.82.27-1.3.27-.49,0-.92-.08-1.27-.25-.35-.16-.64-.39-.86-.68-.22-.29-.38-.63-.49-1.02-.1-.39-.15-.81-.15-1.26,0-.77.14-1.48.42-2.14.28-.66.66-1.23,1.15-1.71.49-.48,1.07-.86,1.75-1.14.67-.28,1.41-.41,2.21-.41.41,0,.82.04,1.24.11.41.07.83.2,1.25.39l-1.15,4.71ZM100.44,17.75c-.2-.04-.43-.06-.68-.07-.47,0-.91.1-1.31.3-.4.2-.75.48-1.04.82-.29.34-.52.73-.67,1.17-.16.44-.24.9-.24,1.39,0,.24.02.47.06.68.04.21.11.39.21.55.1.16.23.28.4.38.17.1.38.14.65.14.34,0,.63-.07.89-.21.26-.14.5-.33.72-.57.01-.27.04-.53.07-.77.04-.24.09-.48.15-.72l.79-3.09Z"/>
      <path class="st0" d="M107,16.29h2.76s-.38,1.58-.38,1.58h-2.76s-1.19,4.92-1.19,4.92c-.14.57-.27,1.07-.39,1.51s-.26.84-.42,1.21c-.16.37-.35.71-.56,1.03-.22.32-.49.64-.82.95l-1.66-.26c.2-.25.39-.51.56-.76.17-.26.33-.53.48-.82.14-.29.28-.6.4-.94.12-.34.23-.72.33-1.14l1.9-7.88c.13-.54.3-1.02.52-1.44.22-.42.49-.78.81-1.07.32-.29.71-.51,1.15-.66.45-.15.96-.23,1.55-.22.42,0,.8.05,1.14.14.34.09.6.18.78.26l-.7,1.5c-.14-.06-.32-.12-.54-.18-.23-.06-.49-.09-.8-.09-.32,0-.58.04-.8.13-.22.09-.41.21-.57.37-.16.16-.29.35-.39.57-.1.23-.18.47-.25.73l-.14.55Z"/>
      <path class="st0" d="M115.28,18.01c-.21-.07-.44-.13-.68-.18-.24-.04-.53-.06-.85-.07-.18,0-.37.01-.57.04-.2.03-.37.06-.51.1l-1.61,6.65h-1.91s1.92-7.87,1.92-7.87c.44-.15.92-.27,1.44-.38.52-.11,1.07-.16,1.67-.16.13,0,.27,0,.43.03.16.02.31.04.46.06.15.02.29.05.43.08.13.03.24.07.34.11l-.56,1.59Z"/>
      <path class="st0" d="M122.56,21.39c-.03.12-.06.3-.1.57-.03.26-.05.51-.05.74,0,.3.02.6.08.89.05.29.13.58.25.88l-1.7.25c-.13-.25-.22-.52-.3-.81-.26.23-.59.44-.97.62-.38.18-.82.27-1.3.27-.49,0-.92-.08-1.27-.25-.35-.16-.64-.39-.86-.68-.22-.29-.38-.63-.49-1.02-.1-.39-.15-.81-.15-1.26,0-.77.14-1.48.42-2.14.28-.66.66-1.23,1.15-1.71.49-.48,1.07-.86,1.75-1.14.67-.28,1.41-.41,2.21-.41.41,0,.82.04,1.24.11.41.07.83.2,1.25.39l-1.15,4.71ZM121.53,17.82c-.2-.04-.43-.06-.68-.07-.47,0-.91.1-1.31.3-.4.2-.75.48-1.04.82-.29.34-.52.73-.67,1.17-.16.44-.24.9-.24,1.39,0,.24.02.47.06.68.04.21.11.39.21.55.1.16.23.28.4.38.17.1.38.14.65.14.34,0,.63-.07.89-.21.26-.14.5-.33.72-.57.01-.27.04-.53.07-.77.04-.24.09-.48.15-.72l.79-3.09Z"/>
    </g>
  </g>
  <path class="st0" d="M85.43,11.25c-.05-.29-.33-.48-.61-.43,0,0,0,0-.01,0-.08-.36-.17-.7-.28-1.05,0,0,0,0,.01,0,.27-.1.42-.4.32-.68-.17-.47-.37-.93-.59-1.37-.13-.26-.45-.37-.71-.24,0,0,0,0-.01,0-.18-.32-.36-.63-.57-.92,0,0,0,0,.01,0,.24-.17.29-.5.11-.74-.29-.4-.61-.78-.95-1.15-.2-.21-.53-.23-.75-.03,0,0,0,0,0,.01-.26-.25-.52-.5-.8-.73,0,0,0,0,.01-.01.18-.23.13-.56-.1-.74-.39-.3-.81-.58-1.23-.83-.25-.15-.58-.07-.73.18,0,0,0,0,0,.01-.32-.17-.64-.33-.97-.47,0,0,0,0,0-.01.11-.27-.03-.58-.3-.68-.46-.18-.94-.33-1.42-.45-.28-.07-.57.1-.65.38,0,0,0,.01,0,.01-.35-.07-.71-.14-1.07-.18,0,0,0,0,0-.01.02-.29-.19-.55-.49-.57-.49-.04-.99-.05-1.49-.04-.29,0-.52.25-.51.55,0,0,0,0,0,.01-.36.03-.72.07-1.08.13,0,0,0,0,0-.01-.06-.29-.34-.47-.63-.41-.48.1-.97.23-1.44.38-.28.09-.43.39-.34.67,0,0,0,0,0,.01-.34.13-.67.27-1,.43,0,0,0,0,0-.01-.14-.26-.46-.36-.72-.22-.44.23-.86.49-1.27.77-.24.17-.3.5-.13.74,0,0,0,0,0,.01-.29.22-.57.45-.84.69,0,0,0,0,0-.01-.2-.21-.54-.21-.75,0-.35.35-.69.72-1,1.1-.18.23-.15.56.08.74,0,0,0,0,.01,0-.22.29-.42.59-.61.9,0,0,0,0-.01,0-.26-.14-.58-.05-.72.2-.24.43-.46.88-.65,1.34-.11.27.01.58.28.69,0,0,0,0,.01,0-.13.34-.24.68-.33,1.03,0,0,0,0-.01,0-.28-.07-.57.11-.63.4-.11.48-.19.98-.25,1.47-.03.29.18.55.47.58,0,0,.01,0,.02,0-.02.36-.03.72-.03,1.08,0,0,0,0-.01,0-.29.02-.51.27-.5.56v.03c.03.49.09.99.18,1.48.05.27.29.45.55.44.02,0,.04,0,.06,0,0,0,0,0,.01,0,.08.36.17.7.28,1.05,0,0,0,0-.01,0-.27.1-.42.4-.32.68.17.46.37.92.59,1.37.1.2.3.31.51.29.07,0,.14-.02.2-.05,0,0,0,0,.01,0,.18.32.37.62.57.92,0,0,0,0-.01,0-.24.17-.29.51-.11.74.29.4.61.78.95,1.15.11.12.27.18.42.17.12,0,.23-.05.33-.14,0,0,0,0,0-.01.26.25.53.5.8.73,0,0,0,0-.01.01-.18.23-.13.56.1.74.39.3.81.58,1.23.83.1.06.2.08.3.07.17-.01.33-.1.42-.26,0,0,0,0,0-.01.32.17.64.33.97.47,0,0,0,0,0,.01-.1.27.03.58.3.68.46.18.94.33,1.42.45.06.01.11.02.17.02.22-.01.42-.17.48-.4,0,0,0,0,0-.01.35.07.71.13,1.07.18,0,0,0,0,0,.01-.02.29.19.55.49.57.49.04.99.05,1.49.03,0,0,.01,0,.02,0,.28-.02.51-.26.5-.55,0,0,0,0,0-.01.36-.03.72-.07,1.08-.13,0,0,0,0,0,.01.05.26.29.44.55.42.02,0,.05,0,.07,0,.48-.1.97-.23,1.44-.38.28-.09.43-.39.34-.67,0,0,0,0,0-.01.34-.13.67-.27,1-.43,0,0,0,0,0,.01.1.19.3.29.5.28.07,0,.15-.02.22-.06.44-.23.86-.49,1.27-.78.24-.17.3-.5.13-.74,0,0,0,0,0-.01.29-.22.57-.45.83-.69,0,0,0,0,0,.01.11.11.26.17.41.16.12,0,.24-.06.34-.15.35-.35.69-.72,1-1.1.18-.23.15-.56-.08-.74,0,0,0,0-.01,0,.22-.29.42-.59.61-.9,0,0,0,0,.01,0,.09.05.19.07.29.07.17-.01.34-.11.43-.27.24-.43.46-.88.65-1.34.11-.27-.01-.58-.28-.69,0,0,0,0-.01,0,.12-.34.23-.68.33-1.03,0,0,0,0,.01,0,.05.01.1.02.15.01.23-.01.43-.18.48-.41.11-.48.19-.98.25-1.47.03-.29-.18-.55-.47-.58,0,0-.01,0-.02,0,.02-.36.03-.72.03-1.09,0,0,0,0,.01,0,.29-.02.51-.26.5-.55h0c-.03-.5-.09-.99-.17-1.48ZM80.54,10.48c.3.79.49,1.63.55,2.51.29,4.68-3.28,8.73-7.96,9.03-4.68.29-8.73-3.28-9.03-7.96s3.28-8.73,7.96-9.03c3.19-.2,6.09,1.39,7.7,3.91.71.18,1.86.49,2.22.75,0,0-.88.33-1.45.78ZM70.11,9.32c-3.5,1.61-3.42,5.2-2.89,6.43.03.07.07.14.1.21,2.63-3.71,7.48-5.03,7.73-5.1.13-.04.87-.28.91-.15.04.13-.48.34-.61.4-5.09,2.11-6.55,5.64-6.83,6.35.63.5,1.4.85,2.28,1.01,4.67.86,6.7-3.25,7.9-6.18.95-2.33,2.67-2.58,2.67-2.58,0,0-7.44-2.16-11.27-.4Z"/>
</svg>